<svg width="27" height="20" viewBox="0 0 27 20" fill="none" xmlns="http://www.w3.org/2000/svg">
  <path d="M23.5 0H3.5C2.70435 0 1.94129 0.316071 1.37868 0.87868C0.816071 1.44129 0.5 2.20435 0.5 3V14C0.5 14.7956 0.816071 15.5587 1.37868 16.1213C1.94129 16.6839 2.70435 17 3.5 17H15.09L16.79 19.71C16.8834 19.8027 16.9943 19.876 17.1161 19.9258C17.2379 19.9755 17.3684 20.0008 17.5 20C17.7383 20 17.9689 19.9149 18.15 19.76L20.37 17H23.5C24.2956 17 25.0587 16.6839 25.6213 16.1213C26.1839 15.5587 26.5 14.7956 26.5 14V3C26.5 2.20435 26.1839 1.44129 25.6213 0.87868C25.0587 0.316071 24.2956 0 23.5 0Z" fill="#5C5C5C"/>
</svg>
