<svg width="413" height="91" viewBox="0 0 413 91" fill="none" xmlns="http://www.w3.org/2000/svg">
<path d="M0.401373 13.418L55.6355 0.100351L110.827 12.0564L55.5932 25.3741L0.401373 13.418Z" fill="#AEBBCE"/>
<path d="M0.402588 13.4219L55.5994 25.3723V37.9518L46.0298 35.8799L45.5406 35.774L17.7271 29.7469L0.402588 26.0013V13.4219Z" fill="#A2203B"/>
<path d="M17.7271 82.1612V29.7469L27.3966 31.8457V52.0926V84.2105L17.7271 82.1612Z" fill="#A2203B"/>
<path d="M27.3966 40.1803L46.0298 64.1589V76.0712L27.3966 52.0926V40.1803Z" fill="#A2203B"/>
<path d="M46.0298 88.1645L45.9507 79.7046L46.0298 76.0712V64.1589V35.8799L55.5994 37.9518V90.1564L46.0298 88.1645Z" fill="#A2203B"/>
<path d="M27.3966 31.8457V40.1803L45.5406 35.774L27.3966 31.8457Z" fill="#4B1A2F"/>
<path d="M45.5406 35.774L27.3966 40.1803L46.0298 64.1589V35.8799L45.5406 35.774Z" fill="#5A7074"/>
<path d="M27.3966 52.0926V84.2105L45.9507 79.7046L46.0298 76.0712L27.3966 52.0926Z" fill="#4B1A2F"/>
<path fill-rule="evenodd" clip-rule="evenodd" d="M55.5591 25.3754L110.828 12.0557V23.6642L73.2737 32.7148L77.3812 35.7449L87.8616 43.4739L93.132 47.3642L88.2024 52.8463L83.5143 58.06L73.2496 69.4752L73.2737 71.3935L110.828 62.3429V76.9381L55.5591 90.153V25.3754ZM82.9267 48.9582L65.8559 36.3773V44.684V67.9293L82.9267 48.9582Z" fill="#39567B"/>
<path fill-rule="evenodd" clip-rule="evenodd" d="M110.828 66.9838L73.2737 76.0344V71.3935L73.2496 69.4752L101.521 62.6619L88.2024 52.8463L82.9267 48.9582L87.8616 43.4739L99.6441 30.3796L77.3812 35.7449L73.2737 36.7348V32.7148V29.8353L110.828 20.7848V66.9838ZM93.132 47.3642L110.828 60.4188V27.6843L93.132 47.3642Z" fill="#AEBBCE"/>
<path d="M82.9267 48.9582L65.8559 36.3773V44.684L82.9267 48.9582Z" fill="#0C2D50"/>
<path d="M101.521 62.6619L88.2024 52.8463L83.5143 58.06L101.521 62.6619Z" fill="#0C2D50"/>
<path d="M65.8559 67.9293L82.9267 48.9582L65.8559 44.684V67.9293Z" fill="#5A7074"/>
<path d="M83.5143 58.06L73.2496 69.4752L101.521 62.6619L83.5143 58.06Z" fill="#566E78"/>
<path d="M99.6441 30.3796L77.3812 35.7449L87.8616 43.4739L99.6441 30.3796Z" fill="#0C2D50"/>
<path d="M130.306 30.4154H150.55C150.69 30.4154 150.802 30.4714 150.886 30.5834C150.97 30.6674 150.984 30.7654 150.928 30.8774C150.732 31.6054 150.55 32.3054 150.382 32.9774C150.242 33.6214 150.074 34.3074 149.878 35.0354H129.634C129.522 35.0354 129.424 35.0214 129.34 34.9934C129.284 34.9374 129.242 34.8674 129.214 34.7834C129.214 34.6994 129.228 34.6294 129.256 34.5734C129.424 33.8454 129.592 33.1594 129.76 32.5154C129.928 31.8434 130.11 31.1434 130.306 30.4154ZM136.018 59.8154C135.178 59.8154 134.352 59.8154 133.54 59.8154C132.728 59.8154 131.916 59.8154 131.104 59.8154C130.964 59.8154 130.866 59.7734 130.81 59.6894C130.754 59.6054 130.74 59.4934 130.768 59.3534C131.3 57.1694 131.832 54.9994 132.364 52.8434C132.924 50.6874 133.47 48.5174 134.002 46.3334C134.562 44.1494 135.108 41.9794 135.64 39.8234C136.2 37.6394 136.746 35.4554 137.278 33.2714L142.864 33.3554L142.402 34.0694C142.262 34.6854 142.108 35.3014 141.94 35.9174C141.8 36.5054 141.66 37.1074 141.52 37.7234C141.38 38.3394 141.226 38.9554 141.058 39.5714C140.61 41.3634 140.162 43.1554 139.714 44.9474C139.266 46.7394 138.818 48.5314 138.37 50.3234C137.95 52.1154 137.516 53.8934 137.068 55.6574C136.872 56.4134 136.676 57.1414 136.48 57.8414C136.312 58.5414 136.158 59.1994 136.018 59.8154ZM161.916 57.0434H156.372L156.876 55.6994C156.988 55.2794 157.114 54.7754 157.254 54.1874C157.394 53.5714 157.52 53.0534 157.632 52.6334C158.024 51.0094 158.416 49.3994 158.808 47.8034C159.228 46.1794 159.634 44.5554 160.026 42.9314C160.446 41.3074 160.852 39.6834 161.244 38.0594C161.664 36.4354 162.07 34.8114 162.462 33.1874H168.006L167.502 34.5314C167.418 34.9234 167.306 35.3854 167.166 35.9174C167.054 36.4494 166.928 36.9254 166.788 37.3454C166.396 38.9974 165.99 40.6494 165.57 42.3014C165.15 43.9254 164.73 45.5634 164.31 47.2154C163.918 48.8674 163.512 50.5194 163.092 52.1714C162.7 53.7954 162.308 55.4194 161.916 57.0434ZM167.88 59.8154H149.526C149.47 59.8154 149.414 59.8014 149.358 59.7734C149.302 59.7454 149.26 59.7174 149.232 59.6894C149.204 59.6334 149.176 59.5774 149.148 59.5214C149.148 59.4654 149.162 59.4094 149.19 59.3534C149.33 58.8774 149.442 58.4294 149.526 58.0094C149.638 57.5614 149.736 57.1274 149.82 56.7074C149.932 56.2874 150.044 55.8254 150.156 55.3214H168.51C168.622 55.3214 168.706 55.3494 168.762 55.4054C168.818 55.4334 168.86 55.4894 168.888 55.5734C168.916 55.6294 168.916 55.6994 168.888 55.7834C168.776 56.2594 168.664 56.7214 168.552 57.1694C168.44 57.5894 168.328 58.0234 168.216 58.4714C168.132 58.8914 168.02 59.3394 167.88 59.8154ZM156.414 30.4154H174.768C174.936 30.4154 175.048 30.4574 175.104 30.5414C175.188 30.6254 175.202 30.7374 175.146 30.8774C175.062 31.2134 174.978 31.5634 174.894 31.9274C174.81 32.2634 174.726 32.5854 174.642 32.8934C174.558 33.2014 174.474 33.5234 174.39 33.8594C174.306 34.1674 174.222 34.5174 174.138 34.9094H155.784C155.644 34.9094 155.546 34.8674 155.49 34.7834C155.434 34.6714 155.42 34.5594 155.448 34.4474C155.532 34.0554 155.616 33.7054 155.7 33.3974C155.784 33.0614 155.868 32.7394 155.952 32.4314C156.036 32.0954 156.106 31.7594 156.162 31.4234C156.246 31.0874 156.33 30.7514 156.414 30.4154ZM179.119 59.8154C178.335 59.8154 177.537 59.8154 176.725 59.8154C175.913 59.8154 175.115 59.8154 174.331 59.8154C174.247 59.8154 174.177 59.8014 174.121 59.7734C174.065 59.7174 174.023 59.6614 173.995 59.6054C173.967 59.5214 173.967 59.4374 173.995 59.3534C174.499 57.3094 175.003 55.2794 175.507 53.2634C176.011 51.2474 176.515 49.2314 177.019 47.2154C177.523 45.1994 178.027 43.1834 178.531 41.1674C179.035 39.1514 179.539 37.1354 180.043 35.1194C180.239 34.3354 180.435 33.5514 180.631 32.7674C180.827 31.9834 181.023 31.1994 181.219 30.4154C181.751 30.4154 182.367 30.4154 183.067 30.4154C183.795 30.4154 184.509 30.4154 185.209 30.4154C185.909 30.4154 186.525 30.4154 187.057 30.4154C187.197 30.4154 187.309 30.4434 187.393 30.4994C187.477 30.5274 187.547 30.6114 187.603 30.7514C187.659 30.8914 187.701 31.1294 187.729 31.4654C187.813 32.0534 187.911 32.7954 188.023 33.6914C188.135 34.5594 188.275 35.5394 188.443 36.6314C188.611 37.6954 188.793 38.8714 188.989 40.1594C189.185 41.4194 189.381 42.7634 189.577 44.1914C189.801 45.5914 190.025 47.0474 190.249 48.5594C190.473 50.0714 190.683 51.6114 190.879 53.1794L189.703 52.3394H192.223L191.383 53.0534C191.523 51.4294 191.649 50.0154 191.761 48.8114C191.901 47.5794 192.041 46.4734 192.181 45.4934C192.349 44.5134 192.517 43.6034 192.685 42.7634C192.853 41.9234 193.035 41.0554 193.231 40.1594C193.427 39.2634 193.651 38.2974 193.903 37.2614C194.183 36.1134 194.463 34.9794 194.743 33.8594C195.023 32.7114 195.303 31.5634 195.583 30.4154C196.395 30.4154 197.207 30.4154 198.019 30.4154C198.831 30.4154 199.615 30.4154 200.371 30.4154C200.511 30.4154 200.609 30.4574 200.665 30.5414C200.749 30.6254 200.763 30.7374 200.707 30.8774C200.231 32.8654 199.741 34.8534 199.237 36.8414C198.733 38.8294 198.229 40.8174 197.725 42.8054C197.221 44.7934 196.717 46.7814 196.213 48.7694C195.737 50.7574 195.247 52.7594 194.743 54.7754C194.547 55.6154 194.337 56.4554 194.113 57.2954C193.917 58.1354 193.707 58.9754 193.483 59.8154C192.979 59.7874 192.419 59.7874 191.803 59.8154C191.187 59.8154 190.571 59.8154 189.955 59.8154C189.367 59.8154 188.821 59.8154 188.317 59.8154C188.121 59.8154 187.967 59.7594 187.855 59.6474C187.743 59.5074 187.631 59.1294 187.519 58.5134C187.239 56.9454 186.945 55.3074 186.637 53.5994C186.329 51.8634 186.021 50.0854 185.713 48.2654C185.433 46.4174 185.139 44.5274 184.831 42.5954C184.523 40.6354 184.243 38.6614 183.991 36.6734L185.209 37.5134H182.605L183.487 36.7574C183.291 38.4094 183.123 39.8794 182.983 41.1674C182.843 42.4274 182.689 43.5614 182.521 44.5694C182.381 45.5494 182.227 46.4734 182.059 47.3414C181.919 48.1814 181.751 49.0074 181.555 49.8194C181.359 50.6314 181.163 51.4994 180.967 52.4234C180.659 53.6274 180.351 54.8454 180.043 56.0774C179.735 57.3094 179.427 58.5554 179.119 59.8154ZM211.569 59.8154C211.009 59.8154 210.449 59.8154 209.889 59.8154C209.357 59.8154 208.825 59.8154 208.293 59.8154C207.761 59.8154 207.215 59.8154 206.655 59.8154C206.571 59.8154 206.487 59.8014 206.403 59.7734C206.347 59.7174 206.305 59.6614 206.277 59.6054C206.277 59.5214 206.291 59.4234 206.319 59.3114C206.823 57.2674 207.327 55.2234 207.831 53.1794C208.363 51.1074 208.881 49.0354 209.385 46.9634L214.677 47.2994C214.453 48.1954 214.229 49.1194 214.005 50.0714C213.781 50.9954 213.543 51.9194 213.291 52.8434C213.067 53.7674 212.843 54.6914 212.619 55.6154C212.423 56.3154 212.241 57.0154 212.073 57.7154C211.905 58.4154 211.737 59.1154 211.569 59.8154ZM204.555 30.4154C205.367 30.4154 206.165 30.4154 206.949 30.4154C207.733 30.4154 208.489 30.4154 209.217 30.4154C209.413 30.4154 209.567 30.4574 209.679 30.5414C209.791 30.5974 209.875 30.7094 209.931 30.8774C210.015 31.0454 210.071 31.2974 210.099 31.6334C210.295 32.5294 210.477 33.4674 210.645 34.4474C210.841 35.3994 211.037 36.4494 211.233 37.5974C211.429 38.7174 211.625 39.9074 211.821 41.1674C212.017 42.4274 212.199 43.7854 212.367 45.2414L211.149 44.1494H214.173L212.367 45.1574C213.235 43.6174 214.047 42.2034 214.803 40.9154C215.587 39.5994 216.357 38.3674 217.113 37.2194C217.897 36.0434 218.667 34.9094 219.423 33.8174C220.179 32.6974 220.949 31.5634 221.733 30.4154C222.601 30.4154 223.497 30.4154 224.421 30.4154C225.373 30.4154 226.269 30.4154 227.109 30.4154C227.277 30.4154 227.403 30.4994 227.487 30.6674C227.571 30.8354 227.487 31.0874 227.235 31.4234C226.367 32.6274 225.471 33.8314 224.547 35.0354C223.651 36.2394 222.741 37.4574 221.817 38.6894C220.921 39.8934 219.997 41.1254 219.045 42.3854C218.121 43.6454 217.197 44.8914 216.273 46.1234C215.349 47.3554 214.425 48.5874 213.501 49.8194C212.493 49.8194 211.695 49.8194 211.107 49.8194C210.547 49.7914 210.127 49.7494 209.847 49.6934C209.567 49.6374 209.371 49.5674 209.259 49.4834C209.147 49.3714 209.077 49.2314 209.049 49.0634C208.881 48.4474 208.671 47.6214 208.419 46.5854C208.167 45.5214 207.873 44.3314 207.537 43.0154C207.229 41.6714 206.893 40.2714 206.529 38.8154C206.193 37.3594 205.857 35.9174 205.521 34.4894C205.185 33.0334 204.863 31.6754 204.555 30.4154ZM388.568 57.0434H383.024L383.528 55.6994C383.64 55.2794 383.766 54.7754 383.906 54.1874C384.046 53.5714 384.172 53.0534 384.284 52.6334C384.676 51.0094 385.068 49.3994 385.46 47.8034C385.88 46.1794 386.286 44.5554 386.678 42.9314C387.098 41.3074 387.504 39.6834 387.896 38.0594C388.316 36.4354 388.722 34.8114 389.114 33.1874H394.658L394.154 34.5314C394.07 34.9234 393.958 35.3854 393.818 35.9174C393.706 36.4494 393.58 36.9254 393.44 37.3454C393.048 38.9974 392.642 40.6494 392.222 42.3014C391.802 43.9254 391.382 45.5634 390.962 47.2154C390.57 48.8674 390.164 50.5194 389.744 52.1714C389.352 53.7954 388.96 55.4194 388.568 57.0434ZM394.532 59.8154H376.178C376.122 59.8154 376.066 59.8014 376.01 59.7734C375.954 59.7454 375.912 59.7174 375.884 59.6894C375.856 59.6334 375.828 59.5774 375.8 59.5214C375.8 59.4654 375.814 59.4094 375.842 59.3534C375.982 58.8774 376.094 58.4294 376.178 58.0094C376.29 57.5614 376.388 57.1274 376.472 56.7074C376.584 56.2874 376.696 55.8254 376.808 55.3214H395.162C395.274 55.3214 395.358 55.3494 395.414 55.4054C395.47 55.4334 395.512 55.4894 395.54 55.5734C395.568 55.6294 395.568 55.6994 395.54 55.7834C395.428 56.2594 395.316 56.7214 395.204 57.1694C395.092 57.5894 394.98 58.0234 394.868 58.4714C394.784 58.8914 394.672 59.3394 394.532 59.8154ZM383.066 30.4154H401.42C401.588 30.4154 401.7 30.4574 401.756 30.5414C401.84 30.6254 401.854 30.7374 401.798 30.8774C401.714 31.2134 401.63 31.5634 401.546 31.9274C401.462 32.2634 401.378 32.5854 401.294 32.8934C401.21 33.2014 401.126 33.5234 401.042 33.8594C400.958 34.1674 400.874 34.5174 400.79 34.9094H382.436C382.296 34.9094 382.198 34.8674 382.142 34.7834C382.086 34.6714 382.072 34.5594 382.1 34.4474C382.184 34.0554 382.268 33.7054 382.352 33.3974C382.436 33.0614 382.52 32.7394 382.604 32.4314C382.688 32.0954 382.758 31.7594 382.814 31.4234C382.898 31.0874 382.982 30.7514 383.066 30.4154Z" fill="#A2203B"/>
<path d="M229.613 30.4154C230.117 30.4154 230.593 30.4154 231.041 30.4154C231.489 30.4154 231.937 30.4154 232.385 30.4154C232.833 30.4154 233.295 30.4154 233.771 30.4154C233.883 30.4154 233.967 30.4434 234.023 30.4994C234.107 30.5274 234.163 30.5834 234.191 30.6674C234.219 30.7514 234.219 30.8634 234.191 31.0034C234.163 31.3114 234.065 31.9834 233.897 33.0194C233.729 34.0554 233.505 35.3714 233.225 36.9674C232.973 38.5634 232.665 40.3694 232.301 42.3854C231.965 44.3734 231.587 46.4874 231.167 48.7274C230.747 50.9674 230.285 53.2494 229.781 55.5734L229.109 54.2714H231.671L230.327 55.5734C230.971 53.8094 231.615 52.0734 232.259 50.3654C232.903 48.6574 233.547 46.9634 234.191 45.2834C234.835 43.6034 235.465 41.9514 236.081 40.3274C236.725 38.6754 237.355 37.0514 237.971 35.4554H241.751C241.835 35.4554 241.905 35.4694 241.961 35.4974C242.045 35.5254 242.101 35.5814 242.129 35.6654C242.185 35.7214 242.199 35.8054 242.171 35.9174C242.115 36.4774 242.017 37.2894 241.877 38.3534C241.765 39.4174 241.625 40.6354 241.457 42.0074C241.289 43.3794 241.107 44.8354 240.911 46.3754C240.743 47.9154 240.561 49.4834 240.365 51.0794C240.197 52.6474 240.015 54.1454 239.819 55.5734L239.147 54.2714H241.667L240.365 55.5734C241.037 53.1934 241.681 51.0234 242.297 49.0634C242.913 47.1034 243.487 45.2974 244.019 43.6454C244.551 41.9934 245.055 40.4394 245.531 38.9834C246.035 37.4994 246.511 36.0574 246.959 34.6574C247.435 33.2574 247.911 31.8434 248.387 30.4154C248.891 30.4154 249.367 30.4154 249.815 30.4154C250.263 30.4154 250.711 30.4154 251.159 30.4154C251.607 30.4154 252.069 30.4154 252.545 30.4154C252.657 30.4154 252.741 30.4434 252.797 30.4994C252.881 30.5274 252.937 30.5974 252.965 30.7094C252.993 30.7934 252.979 30.8914 252.923 31.0034C252.699 31.5634 252.363 32.4454 251.915 33.6494C251.495 34.8534 250.977 36.2674 250.361 37.8914C249.773 39.4874 249.129 41.2374 248.429 43.1414C247.729 45.0174 247.015 46.9354 246.287 48.8954C245.587 50.8554 244.887 52.7734 244.187 54.6494C243.487 56.5254 242.843 58.2614 242.255 59.8574C241.807 59.8574 241.345 59.8574 240.869 59.8574C240.421 59.8574 239.973 59.8574 239.525 59.8574C239.105 59.8574 238.671 59.8574 238.223 59.8574C237.803 59.8574 237.369 59.8574 236.921 59.8574C236.781 59.8574 236.683 59.8294 236.627 59.7734C236.571 59.6894 236.557 59.5634 236.585 59.3954C236.641 58.6954 236.725 57.7574 236.837 56.5814C236.977 55.4054 237.145 54.0194 237.341 52.4234C237.537 50.7994 237.775 49.0074 238.055 47.0474C238.363 45.0594 238.699 42.9314 239.063 40.6634L239.819 41.7554H237.257L238.517 40.6634C237.929 42.4554 237.341 44.1774 236.753 45.8294C236.193 47.4814 235.661 49.0494 235.157 50.5334C234.653 51.9894 234.177 53.3194 233.729 54.5234C233.281 55.7274 232.875 56.7914 232.511 57.7154C232.147 58.6114 231.853 59.3254 231.629 59.8574C230.985 59.8574 230.355 59.8574 229.739 59.8574C229.151 59.8574 228.549 59.8574 227.933 59.8574C227.317 59.8574 226.701 59.8574 226.085 59.8574C225.945 59.8574 225.847 59.8294 225.791 59.7734C225.735 59.6894 225.721 59.5634 225.749 59.3954C225.777 59.1714 225.861 58.4714 226.001 57.2954C226.141 56.1194 226.337 54.6354 226.589 52.8434C226.841 51.0514 227.107 49.0914 227.387 46.9634C227.667 44.8354 227.947 42.6794 228.227 40.4954C228.535 38.3114 228.815 36.2674 229.067 34.3634C229.207 33.6634 229.319 32.9774 229.403 32.3054C229.487 31.6334 229.557 31.0034 229.613 30.4154ZM363.385 57.0434H357.841L358.345 55.6994C358.457 55.2794 358.583 54.7754 358.723 54.1874C358.863 53.5714 358.989 53.0534 359.101 52.6334C359.493 51.0094 359.885 49.3994 360.277 47.8034C360.697 46.1794 361.103 44.5554 361.495 42.9314C361.915 41.3074 362.321 39.6834 362.713 38.0594C363.133 36.4354 363.539 34.8114 363.931 33.1874H369.475L368.971 34.5314C368.887 34.9234 368.775 35.3854 368.635 35.9174C368.523 36.4494 368.397 36.9254 368.257 37.3454C367.865 38.9974 367.459 40.6494 367.039 42.3014C366.619 43.9254 366.199 45.5634 365.779 47.2154C365.387 48.8674 364.981 50.5194 364.561 52.1714C364.169 53.7954 363.777 55.4194 363.385 57.0434ZM369.349 59.8154H350.995C350.939 59.8154 350.883 59.8014 350.827 59.7734C350.771 59.7454 350.729 59.7174 350.701 59.6894C350.673 59.6334 350.645 59.5774 350.617 59.5214C350.617 59.4654 350.631 59.4094 350.659 59.3534C350.799 58.8774 350.911 58.4294 350.995 58.0094C351.107 57.5614 351.205 57.1274 351.289 56.7074C351.401 56.2874 351.513 55.8254 351.625 55.3214H369.979C370.091 55.3214 370.175 55.3494 370.231 55.4054C370.287 55.4334 370.329 55.4894 370.357 55.5734C370.385 55.6294 370.385 55.6994 370.357 55.7834C370.245 56.2594 370.133 56.7214 370.021 57.1694C369.909 57.5894 369.797 58.0234 369.685 58.4714C369.601 58.8914 369.489 59.3394 369.349 59.8154ZM357.883 30.4154H376.237C376.405 30.4154 376.517 30.4574 376.573 30.5414C376.657 30.6254 376.671 30.7374 376.615 30.8774C376.531 31.2134 376.447 31.5634 376.363 31.9274C376.279 32.2634 376.195 32.5854 376.111 32.8934C376.027 33.2014 375.943 33.5234 375.859 33.8594C375.775 34.1674 375.691 34.5174 375.607 34.9094H357.253C357.113 34.9094 357.015 34.8674 356.959 34.7834C356.903 34.6714 356.889 34.5594 356.917 34.4474C357.001 34.0554 357.085 33.7054 357.169 33.3974C357.253 33.0614 357.337 32.7394 357.421 32.4314C357.505 32.0954 357.575 31.7594 357.631 31.4234C357.715 31.0874 357.799 30.7514 357.883 30.4154Z" fill="#5A7074"/>
<path d="M266.01 59.8154C265.926 59.8154 265.842 59.8014 265.758 59.7734C265.702 59.7174 265.646 59.6614 265.59 59.6054C265.534 59.5214 265.478 59.4234 265.422 59.3114C265.114 58.3874 264.764 57.3094 264.372 56.0774C264.008 54.8174 263.616 53.5014 263.196 52.1294C262.804 50.7574 262.426 49.4414 262.062 48.1814L260.466 45.9554C259.906 44.2474 259.332 42.5394 258.744 40.8314C258.184 39.0954 257.61 37.3594 257.022 35.6234C256.434 33.8874 255.846 32.1514 255.258 30.4154C256.07 30.4154 256.868 30.4154 257.652 30.4154C258.436 30.4154 259.206 30.4154 259.962 30.4154C260.102 30.4154 260.214 30.4434 260.298 30.4994C260.382 30.5274 260.452 30.5834 260.508 30.6674C260.592 30.7234 260.648 30.8074 260.676 30.9194C261.04 32.1794 261.39 33.4254 261.726 34.6574C262.09 35.8894 262.454 37.1214 262.818 38.3534C263.21 39.5574 263.574 40.7894 263.91 42.0494L265.59 44.0654C266.458 46.6414 267.312 49.2594 268.152 51.9194C269.02 54.5514 269.888 57.1834 270.756 59.8154C269.888 59.8154 269.09 59.8154 268.362 59.8154C267.662 59.8154 266.878 59.8154 266.01 59.8154ZM277.518 30.4154C277.658 30.4154 277.77 30.4574 277.854 30.5414C277.938 30.5974 277.966 30.6954 277.938 30.8354C277.938 30.9474 277.868 31.0734 277.728 31.2134C277.308 31.6894 276.734 32.3474 276.006 33.1874C275.306 34.0274 274.494 34.9934 273.57 36.0854C272.674 37.1774 271.722 38.3254 270.714 39.5294C269.734 40.7054 268.754 41.8814 267.774 43.0574C266.794 44.2054 265.87 45.2834 265.002 46.2914L262.398 41.6294H264.54C264.932 40.8174 265.324 40.0754 265.716 39.4034C266.108 38.7034 266.514 38.0314 266.934 37.3874C267.382 36.7154 267.858 36.0294 268.362 35.3294C268.894 34.6294 269.468 33.8874 270.084 33.1034C270.728 32.2914 271.442 31.3954 272.226 30.4154C273.122 30.4154 274.004 30.4154 274.872 30.4154C275.74 30.4154 276.622 30.4154 277.518 30.4154ZM248.286 59.8154C248.146 59.8154 248.048 59.7734 247.992 59.6894C247.908 59.6054 247.88 59.5074 247.908 59.3954C247.908 59.2554 247.95 59.1294 248.034 59.0174C248.454 58.5414 249.014 57.8834 249.714 57.0434C250.442 56.2034 251.268 55.2374 252.192 54.1454C253.116 53.0534 254.068 51.9194 255.048 50.7434C256.056 49.5394 257.05 48.3634 258.03 47.2154C259.038 46.0394 259.962 44.9474 260.802 43.9394L263.532 48.6854H261.432C261.012 49.4974 260.606 50.2534 260.214 50.9534C259.822 51.6254 259.416 52.2834 258.996 52.9274C258.576 53.5714 258.114 54.2434 257.61 54.9434C257.134 55.6154 256.588 56.3434 255.972 57.1274C255.356 57.9114 254.656 58.8074 253.872 59.8154C252.92 59.8154 251.982 59.8154 251.058 59.8154C250.134 59.8154 249.21 59.8154 248.286 59.8154ZM286.952 60.6554C284.824 60.6554 283.018 60.3754 281.534 59.8154C280.078 59.2554 278.93 58.4294 278.09 57.3374C277.278 56.2454 276.788 54.9294 276.62 53.3894C276.48 51.8214 276.662 50.0434 277.166 48.0554L279.266 39.6134C279.686 37.9614 280.288 36.5194 281.072 35.2874C281.856 34.0274 282.794 32.9774 283.886 32.1374C284.978 31.2974 286.21 30.6674 287.582 30.2474C288.982 29.7994 290.508 29.5754 292.16 29.5754C293.784 29.5754 295.156 29.7154 296.276 29.9954C297.396 30.2754 298.334 30.6394 299.09 31.0874C299.846 31.5074 300.448 31.9554 300.896 32.4314C300.98 32.4874 301.036 32.5574 301.064 32.6414C301.092 32.6974 301.106 32.7674 301.106 32.8514C301.106 32.9354 301.092 33.0474 301.064 33.1874C300.812 34.1674 300.532 35.2874 300.224 36.5474C299.916 37.7794 299.622 38.9554 299.342 40.0754C298.614 40.0754 297.886 40.0754 297.158 40.0754C296.458 40.0754 295.744 40.0754 295.016 40.0754C294.904 40.0754 294.806 40.0334 294.722 39.9494C294.666 39.8654 294.652 39.7534 294.68 39.6134C294.82 39.0814 294.96 38.5494 295.1 38.0174C295.24 37.4854 295.38 36.8974 295.52 36.2534C295.688 35.6094 295.87 34.8814 296.066 34.0694L296.822 35.8754C296.178 35.3434 295.478 34.9654 294.722 34.7414C293.966 34.4894 293.042 34.3634 291.95 34.3634C290.718 34.3634 289.598 34.6014 288.59 35.0774C287.61 35.5534 286.756 36.2954 286.028 37.3034C285.3 38.2834 284.74 39.5714 284.348 41.1674L282.332 48.9794C282.024 50.2954 281.898 51.4014 281.954 52.2974C282.01 53.1654 282.304 53.8934 282.836 54.4814C283.284 55.0134 283.872 55.3914 284.6 55.6154C285.356 55.8394 286.224 55.9514 287.204 55.9514C288.744 55.9514 290.13 55.7694 291.362 55.4054C292.622 55.0414 293.98 54.4254 295.436 53.5574H296.192C296.108 53.9214 296.01 54.2854 295.898 54.6494C295.814 55.0134 295.73 55.3774 295.646 55.7414C295.562 56.1054 295.464 56.4694 295.352 56.8334C295.268 57.1694 295.184 57.5194 295.1 57.8834C295.072 58.0514 295.016 58.1914 294.932 58.3034C294.876 58.3874 294.806 58.4714 294.722 58.5554C294.246 58.9474 293.588 59.2974 292.748 59.6054C291.936 59.9134 291.026 60.1654 290.018 60.3614C289.01 60.5574 287.988 60.6554 286.952 60.6554ZM310.287 30.4154C310.511 30.4154 310.665 30.4434 310.749 30.4994C310.861 30.5554 310.931 30.6674 310.959 30.8354C310.987 30.9754 311.001 31.2134 311.001 31.5494C310.945 33.3134 310.889 35.1754 310.833 37.1354C310.805 39.0674 310.749 41.0974 310.665 43.2254C310.581 45.3254 310.483 47.5234 310.371 49.8194C310.287 52.0874 310.175 54.4534 310.035 56.9174L309.321 55.9094H311.757L310.455 56.9174C311.295 55.0414 312.121 53.1934 312.933 51.3734C313.773 49.5534 314.599 47.7614 315.411 45.9974C316.251 44.2334 317.077 42.4834 317.889 40.7474C318.729 39.0114 319.555 37.2894 320.367 35.5814C321.179 33.8454 321.991 32.1234 322.803 30.4154C323.587 30.4154 324.371 30.4154 325.155 30.4154C325.939 30.4154 326.709 30.4154 327.465 30.4154C327.633 30.4154 327.745 30.4434 327.801 30.4994C327.857 30.5554 327.885 30.6394 327.885 30.7514C327.885 30.8354 327.843 30.9474 327.759 31.0874C327.451 31.6474 326.989 32.5294 326.373 33.7334C325.785 34.9094 325.099 36.3094 324.315 37.9334C323.531 39.5294 322.677 41.2654 321.753 43.1414C320.857 45.0174 319.933 46.9354 318.981 48.8954C318.057 50.8554 317.133 52.7734 316.209 54.6494C315.313 56.5254 314.473 58.2614 313.689 59.8574C312.401 59.8574 311.127 59.8574 309.867 59.8574C308.635 59.8574 307.501 59.8574 306.465 59.8574C306.073 59.8574 305.821 59.8014 305.709 59.6894C305.597 59.5494 305.541 59.2134 305.541 58.6814C305.541 58.0374 305.541 57.0854 305.541 55.8254C305.569 54.5374 305.597 53.0674 305.625 51.4154C305.653 49.7354 305.667 47.9714 305.667 46.1234C305.695 44.2474 305.723 42.3854 305.751 40.5374C305.779 38.6894 305.807 36.9674 305.835 35.3714C305.835 34.8114 305.835 34.2654 305.835 33.7334C305.835 33.1734 305.835 32.6134 305.835 32.0534C305.835 31.4934 305.821 30.9474 305.793 30.4154C306.605 30.4154 307.389 30.4154 308.145 30.4154C308.929 30.4154 309.643 30.4154 310.287 30.4154ZM338.201 57.0434H332.657L333.161 55.6994C333.273 55.2794 333.399 54.7754 333.539 54.1874C333.679 53.5714 333.805 53.0534 333.917 52.6334C334.309 51.0094 334.701 49.3994 335.093 47.8034C335.513 46.1794 335.919 44.5554 336.311 42.9314C336.731 41.3074 337.137 39.6834 337.529 38.0594C337.949 36.4354 338.355 34.8114 338.747 33.1874H344.291L343.787 34.5314C343.703 34.9234 343.591 35.3854 343.451 35.9174C343.339 36.4494 343.213 36.9254 343.073 37.3454C342.681 38.9974 342.275 40.6494 341.855 42.3014C341.435 43.9254 341.015 45.5634 340.595 47.2154C340.203 48.8674 339.797 50.5194 339.377 52.1714C338.985 53.7954 338.593 55.4194 338.201 57.0434ZM344.165 59.8154H325.811C325.755 59.8154 325.699 59.8014 325.643 59.7734C325.587 59.7454 325.545 59.7174 325.517 59.6894C325.489 59.6334 325.461 59.5774 325.433 59.5214C325.433 59.4654 325.447 59.4094 325.475 59.3534C325.615 58.8774 325.727 58.4294 325.811 58.0094C325.923 57.5614 326.021 57.1274 326.105 56.7074C326.217 56.2874 326.329 55.8254 326.441 55.3214H344.795C344.907 55.3214 344.991 55.3494 345.047 55.4054C345.103 55.4334 345.145 55.4894 345.173 55.5734C345.201 55.6294 345.201 55.6994 345.173 55.7834C345.061 56.2594 344.949 56.7214 344.837 57.1694C344.725 57.5894 344.613 58.0234 344.501 58.4714C344.417 58.8914 344.305 59.3394 344.165 59.8154ZM332.699 30.4154H351.053C351.221 30.4154 351.333 30.4574 351.389 30.5414C351.473 30.6254 351.487 30.7374 351.431 30.8774C351.347 31.2134 351.263 31.5634 351.179 31.9274C351.095 32.2634 351.011 32.5854 350.927 32.8934C350.843 33.2014 350.759 33.5234 350.675 33.8594C350.591 34.1674 350.507 34.5174 350.423 34.9094H332.069C331.929 34.9094 331.831 34.8674 331.775 34.7834C331.719 34.6714 331.705 34.5594 331.733 34.4474C331.817 34.0554 331.901 33.7054 331.985 33.3974C332.069 33.0614 332.153 32.7394 332.237 32.4314C332.321 32.0954 332.391 31.7594 332.447 31.4234C332.531 31.0874 332.615 30.7514 332.699 30.4154Z" fill="#39567B"/>
</svg>
